<mxfile host="app.diagrams.net" modified="2021-01-10T07:33:02.672Z" agent="5.0 (Macintosh; Intel Mac OS X 11_1_0) AppleWebKit/537.36 (KHTML, like Gecko) Chrome/87.0.4280.88 Safari/537.36" etag="ZbxIKLIUsWkh04N9WBUe" version="14.1.3" type="github">
  <diagram id="jm0kqqXkvrBE6uGvm78l" name="现状">
    <mxGraphModel dx="1213" dy="809" grid="1" gridSize="10" guides="1" tooltips="1" connect="1" arrows="1" fold="1" page="1" pageScale="1" pageWidth="1169" pageHeight="1654" math="0" shadow="0">
      <root>
        <mxCell id="0" />
        <mxCell id="1" parent="0" />
        <mxCell id="4a3X6e4sG5SJX_5D27jo-1" value="DTS&lt;br&gt;&lt;ol&gt;&lt;li&gt;uid表&lt;/li&gt;&lt;li&gt;订单表&lt;/li&gt;&lt;/ol&gt;" style="rounded=0;whiteSpace=wrap;html=1;align=left;" vertex="1" parent="1">
          <mxGeometry x="40" y="50" width="140" height="70" as="geometry" />
        </mxCell>
        <mxCell id="4a3X6e4sG5SJX_5D27jo-13" style="edgeStyle=orthogonalEdgeStyle;rounded=0;orthogonalLoop=1;jettySize=auto;html=1;entryX=0;entryY=0.5;entryDx=0;entryDy=0;" edge="1" parent="1" source="4a3X6e4sG5SJX_5D27jo-2" target="4a3X6e4sG5SJX_5D27jo-10">
          <mxGeometry relative="1" as="geometry" />
        </mxCell>
        <mxCell id="4a3X6e4sG5SJX_5D27jo-2" value="snowmass-task" style="ellipse;whiteSpace=wrap;html=1;" vertex="1" parent="1">
          <mxGeometry x="230" y="160" width="120" height="80" as="geometry" />
        </mxCell>
        <mxCell id="4a3X6e4sG5SJX_5D27jo-4" value="BAT2&lt;br&gt;&lt;ol&gt;&lt;li&gt;tagMap缓存&lt;/li&gt;&lt;/ol&gt;" style="rounded=0;whiteSpace=wrap;html=1;align=left;" vertex="1" parent="1">
          <mxGeometry x="40" y="280" width="140" height="70" as="geometry" />
        </mxCell>
        <mxCell id="4a3X6e4sG5SJX_5D27jo-5" value="" style="endArrow=classic;html=1;exitX=1;exitY=0.5;exitDx=0;exitDy=0;" edge="1" parent="1" source="4a3X6e4sG5SJX_5D27jo-1" target="4a3X6e4sG5SJX_5D27jo-2">
          <mxGeometry width="50" height="50" relative="1" as="geometry">
            <mxPoint x="220" y="140" as="sourcePoint" />
            <mxPoint x="270" y="90" as="targetPoint" />
          </mxGeometry>
        </mxCell>
        <mxCell id="4a3X6e4sG5SJX_5D27jo-6" value="" style="endArrow=classic;html=1;exitX=1;exitY=0.5;exitDx=0;exitDy=0;" edge="1" parent="1" source="4a3X6e4sG5SJX_5D27jo-4" target="4a3X6e4sG5SJX_5D27jo-2">
          <mxGeometry width="50" height="50" relative="1" as="geometry">
            <mxPoint x="200" y="340" as="sourcePoint" />
            <mxPoint x="250" y="290" as="targetPoint" />
          </mxGeometry>
        </mxCell>
        <mxCell id="4a3X6e4sG5SJX_5D27jo-8" value="监控(ROC-SDK)&lt;br&gt;&lt;ol&gt;&lt;li&gt;下单量&lt;/li&gt;&lt;li&gt;GMV&lt;/li&gt;&lt;/ol&gt;" style="rounded=0;whiteSpace=wrap;html=1;align=left;" vertex="1" parent="1">
          <mxGeometry x="400" y="50" width="140" height="70" as="geometry" />
        </mxCell>
        <mxCell id="4a3X6e4sG5SJX_5D27jo-10" value="BAT2&lt;br&gt;&lt;ol&gt;&lt;li&gt;uid表的额度值&lt;/li&gt;&lt;/ol&gt;" style="rounded=0;whiteSpace=wrap;html=1;align=left;" vertex="1" parent="1">
          <mxGeometry x="400" y="165" width="140" height="70" as="geometry" />
        </mxCell>
        <mxCell id="4a3X6e4sG5SJX_5D27jo-11" value="tiger&lt;br&gt;&lt;ol&gt;&lt;li&gt;order+tagmap&lt;/li&gt;&lt;/ol&gt;" style="rounded=0;whiteSpace=wrap;html=1;align=left;" vertex="1" parent="1">
          <mxGeometry x="400" y="280" width="140" height="70" as="geometry" />
        </mxCell>
        <mxCell id="4a3X6e4sG5SJX_5D27jo-12" value="" style="endArrow=classic;html=1;entryX=0;entryY=0.5;entryDx=0;entryDy=0;exitX=0.692;exitY=0.038;exitDx=0;exitDy=0;exitPerimeter=0;" edge="1" parent="1" source="4a3X6e4sG5SJX_5D27jo-2" target="4a3X6e4sG5SJX_5D27jo-8">
          <mxGeometry width="50" height="50" relative="1" as="geometry">
            <mxPoint x="320" y="160" as="sourcePoint" />
            <mxPoint x="370" y="110" as="targetPoint" />
          </mxGeometry>
        </mxCell>
        <mxCell id="4a3X6e4sG5SJX_5D27jo-14" value="" style="endArrow=classic;html=1;entryX=0;entryY=0.5;entryDx=0;entryDy=0;" edge="1" parent="1" source="4a3X6e4sG5SJX_5D27jo-2" target="4a3X6e4sG5SJX_5D27jo-11">
          <mxGeometry width="50" height="50" relative="1" as="geometry">
            <mxPoint x="300" y="350" as="sourcePoint" />
            <mxPoint x="350" y="300" as="targetPoint" />
          </mxGeometry>
        </mxCell>
        <mxCell id="4a3X6e4sG5SJX_5D27jo-15" value="steamboat-task" style="ellipse;whiteSpace=wrap;html=1;" vertex="1" parent="1">
          <mxGeometry x="730" y="155" width="120" height="80" as="geometry" />
        </mxCell>
        <mxCell id="4a3X6e4sG5SJX_5D27jo-16" value="" style="endArrow=classic;html=1;entryX=0;entryY=0.5;entryDx=0;entryDy=0;exitX=1;exitY=0.5;exitDx=0;exitDy=0;" edge="1" parent="1" source="4a3X6e4sG5SJX_5D27jo-10" target="4a3X6e4sG5SJX_5D27jo-15">
          <mxGeometry width="50" height="50" relative="1" as="geometry">
            <mxPoint x="640" y="240" as="sourcePoint" />
            <mxPoint x="690" y="190" as="targetPoint" />
          </mxGeometry>
        </mxCell>
        <mxCell id="4a3X6e4sG5SJX_5D27jo-17" value="" style="endArrow=classic;html=1;exitX=1;exitY=0.5;exitDx=0;exitDy=0;" edge="1" parent="1" source="4a3X6e4sG5SJX_5D27jo-11" target="4a3X6e4sG5SJX_5D27jo-15">
          <mxGeometry width="50" height="50" relative="1" as="geometry">
            <mxPoint x="620" y="360" as="sourcePoint" />
            <mxPoint x="670" y="310" as="targetPoint" />
          </mxGeometry>
        </mxCell>
        <mxCell id="4a3X6e4sG5SJX_5D27jo-18" value="tiger&lt;br&gt;&lt;ol&gt;&lt;li&gt;业务侧消息&lt;/li&gt;&lt;/ol&gt;" style="rounded=0;whiteSpace=wrap;html=1;align=left;" vertex="1" parent="1">
          <mxGeometry x="590" y="330" width="140" height="70" as="geometry" />
        </mxCell>
        <mxCell id="4a3X6e4sG5SJX_5D27jo-19" value="" style="endArrow=classic;html=1;exitX=0.5;exitY=0;exitDx=0;exitDy=0;" edge="1" parent="1" source="4a3X6e4sG5SJX_5D27jo-18">
          <mxGeometry width="50" height="50" relative="1" as="geometry">
            <mxPoint x="730" y="285" as="sourcePoint" />
            <mxPoint x="780" y="235" as="targetPoint" />
          </mxGeometry>
        </mxCell>
        <mxCell id="4a3X6e4sG5SJX_5D27jo-20" value="hive&lt;br&gt;&lt;ol&gt;&lt;li&gt;信贷额度使用情况&lt;/li&gt;&lt;li&gt;订单信息&lt;/li&gt;&lt;/ol&gt;" style="rounded=0;whiteSpace=wrap;html=1;align=left;" vertex="1" parent="1">
          <mxGeometry x="920" y="50" width="140" height="70" as="geometry" />
        </mxCell>
        <mxCell id="4a3X6e4sG5SJX_5D27jo-21" value="clickhouse&lt;br&gt;&lt;ol&gt;&lt;li&gt;订单信息&lt;/li&gt;&lt;/ol&gt;" style="rounded=0;whiteSpace=wrap;html=1;align=left;" vertex="1" parent="1">
          <mxGeometry x="920" y="280" width="140" height="70" as="geometry" />
        </mxCell>
        <mxCell id="4a3X6e4sG5SJX_5D27jo-22" value="" style="endArrow=classic;html=1;entryX=0;entryY=0.5;entryDx=0;entryDy=0;exitX=0.758;exitY=0.088;exitDx=0;exitDy=0;exitPerimeter=0;" edge="1" parent="1" source="4a3X6e4sG5SJX_5D27jo-15" target="4a3X6e4sG5SJX_5D27jo-20">
          <mxGeometry width="50" height="50" relative="1" as="geometry">
            <mxPoint x="830" y="140" as="sourcePoint" />
            <mxPoint x="880" y="90" as="targetPoint" />
          </mxGeometry>
        </mxCell>
        <mxCell id="4a3X6e4sG5SJX_5D27jo-23" value="" style="endArrow=classic;html=1;entryX=0;entryY=0.5;entryDx=0;entryDy=0;exitX=0.683;exitY=0.963;exitDx=0;exitDy=0;exitPerimeter=0;" edge="1" parent="1" source="4a3X6e4sG5SJX_5D27jo-15" target="4a3X6e4sG5SJX_5D27jo-21">
          <mxGeometry width="50" height="50" relative="1" as="geometry">
            <mxPoint x="820" y="430" as="sourcePoint" />
            <mxPoint x="870" y="380" as="targetPoint" />
          </mxGeometry>
        </mxCell>
        <mxCell id="4a3X6e4sG5SJX_5D27jo-24" value="newService" style="ellipse;whiteSpace=wrap;html=1;" vertex="1" parent="1">
          <mxGeometry x="480" y="620" width="120" height="80" as="geometry" />
        </mxCell>
        <mxCell id="4a3X6e4sG5SJX_5D27jo-29" value="tiger消息" style="rounded=0;whiteSpace=wrap;html=1;align=center;" vertex="1" parent="1">
          <mxGeometry x="240" y="510" width="100" height="45" as="geometry" />
        </mxCell>
        <mxCell id="4a3X6e4sG5SJX_5D27jo-30" value="DTS消息" style="rounded=0;whiteSpace=wrap;html=1;align=center;" vertex="1" parent="1">
          <mxGeometry x="240" y="770" width="100" height="45" as="geometry" />
        </mxCell>
        <mxCell id="4a3X6e4sG5SJX_5D27jo-31" value="BTA2" style="rounded=0;whiteSpace=wrap;html=1;align=center;" vertex="1" parent="1">
          <mxGeometry x="240" y="600" width="100" height="45" as="geometry" />
        </mxCell>
        <mxCell id="4a3X6e4sG5SJX_5D27jo-32" value="dubbo调用" style="rounded=0;whiteSpace=wrap;html=1;align=center;" vertex="1" parent="1">
          <mxGeometry x="240" y="687" width="100" height="45" as="geometry" />
        </mxCell>
        <mxCell id="4a3X6e4sG5SJX_5D27jo-33" value="监控打点" style="rounded=0;whiteSpace=wrap;html=1;align=center;" vertex="1" parent="1">
          <mxGeometry x="740" y="465" width="100" height="45" as="geometry" />
        </mxCell>
        <mxCell id="4a3X6e4sG5SJX_5D27jo-34" value="mysql" style="rounded=0;whiteSpace=wrap;html=1;align=center;" vertex="1" parent="1">
          <mxGeometry x="740" y="760" width="100" height="45" as="geometry" />
        </mxCell>
        <mxCell id="4a3X6e4sG5SJX_5D27jo-35" value="hive分析" style="rounded=0;whiteSpace=wrap;html=1;align=center;" vertex="1" parent="1">
          <mxGeometry x="740" y="560" width="100" height="45" as="geometry" />
        </mxCell>
        <mxCell id="4a3X6e4sG5SJX_5D27jo-36" value="clickhouse" style="rounded=0;whiteSpace=wrap;html=1;align=center;" vertex="1" parent="1">
          <mxGeometry x="740" y="655" width="100" height="45" as="geometry" />
        </mxCell>
        <mxCell id="4a3X6e4sG5SJX_5D27jo-37" value="" style="endArrow=classic;html=1;exitX=1;exitY=0.5;exitDx=0;exitDy=0;" edge="1" parent="1" source="4a3X6e4sG5SJX_5D27jo-29" target="4a3X6e4sG5SJX_5D27jo-24">
          <mxGeometry width="50" height="50" relative="1" as="geometry">
            <mxPoint x="390" y="570" as="sourcePoint" />
            <mxPoint x="440" y="520" as="targetPoint" />
          </mxGeometry>
        </mxCell>
        <mxCell id="4a3X6e4sG5SJX_5D27jo-38" value="" style="endArrow=classic;html=1;exitX=1;exitY=0.5;exitDx=0;exitDy=0;entryX=0;entryY=0.5;entryDx=0;entryDy=0;" edge="1" parent="1" source="4a3X6e4sG5SJX_5D27jo-31" target="4a3X6e4sG5SJX_5D27jo-24">
          <mxGeometry width="50" height="50" relative="1" as="geometry">
            <mxPoint x="380" y="690" as="sourcePoint" />
            <mxPoint x="430" y="640" as="targetPoint" />
          </mxGeometry>
        </mxCell>
        <mxCell id="4a3X6e4sG5SJX_5D27jo-39" value="" style="endArrow=classic;html=1;entryX=0.008;entryY=0.725;entryDx=0;entryDy=0;entryPerimeter=0;exitX=1;exitY=0.5;exitDx=0;exitDy=0;" edge="1" parent="1" source="4a3X6e4sG5SJX_5D27jo-32" target="4a3X6e4sG5SJX_5D27jo-24">
          <mxGeometry width="50" height="50" relative="1" as="geometry">
            <mxPoint x="400" y="750" as="sourcePoint" />
            <mxPoint x="450" y="700" as="targetPoint" />
          </mxGeometry>
        </mxCell>
        <mxCell id="4a3X6e4sG5SJX_5D27jo-40" value="" style="endArrow=classic;html=1;entryX=0.1;entryY=0.85;entryDx=0;entryDy=0;entryPerimeter=0;exitX=1;exitY=0.5;exitDx=0;exitDy=0;" edge="1" parent="1" source="4a3X6e4sG5SJX_5D27jo-30" target="4a3X6e4sG5SJX_5D27jo-24">
          <mxGeometry width="50" height="50" relative="1" as="geometry">
            <mxPoint x="410" y="810" as="sourcePoint" />
            <mxPoint x="460" y="760" as="targetPoint" />
          </mxGeometry>
        </mxCell>
        <mxCell id="4a3X6e4sG5SJX_5D27jo-41" value="" style="endArrow=classic;html=1;entryX=0;entryY=0.5;entryDx=0;entryDy=0;exitX=1;exitY=0;exitDx=0;exitDy=0;" edge="1" parent="1" source="4a3X6e4sG5SJX_5D27jo-24" target="4a3X6e4sG5SJX_5D27jo-33">
          <mxGeometry width="50" height="50" relative="1" as="geometry">
            <mxPoint x="600" y="620" as="sourcePoint" />
            <mxPoint x="650" y="570" as="targetPoint" />
          </mxGeometry>
        </mxCell>
        <mxCell id="4a3X6e4sG5SJX_5D27jo-42" value="" style="endArrow=classic;html=1;entryX=0;entryY=0.5;entryDx=0;entryDy=0;exitX=1;exitY=0.5;exitDx=0;exitDy=0;" edge="1" parent="1" source="4a3X6e4sG5SJX_5D27jo-24" target="4a3X6e4sG5SJX_5D27jo-35">
          <mxGeometry width="50" height="50" relative="1" as="geometry">
            <mxPoint x="640" y="680" as="sourcePoint" />
            <mxPoint x="690" y="630" as="targetPoint" />
          </mxGeometry>
        </mxCell>
        <mxCell id="4a3X6e4sG5SJX_5D27jo-43" value="" style="endArrow=classic;html=1;entryX=0;entryY=0.5;entryDx=0;entryDy=0;exitX=0.958;exitY=0.763;exitDx=0;exitDy=0;exitPerimeter=0;" edge="1" parent="1" source="4a3X6e4sG5SJX_5D27jo-24" target="4a3X6e4sG5SJX_5D27jo-36">
          <mxGeometry width="50" height="50" relative="1" as="geometry">
            <mxPoint x="610" y="760" as="sourcePoint" />
            <mxPoint x="660" y="710" as="targetPoint" />
          </mxGeometry>
        </mxCell>
        <mxCell id="4a3X6e4sG5SJX_5D27jo-44" value="" style="endArrow=classic;html=1;entryX=0;entryY=0.5;entryDx=0;entryDy=0;exitX=0.8;exitY=0.938;exitDx=0;exitDy=0;exitPerimeter=0;" edge="1" parent="1" source="4a3X6e4sG5SJX_5D27jo-24" target="4a3X6e4sG5SJX_5D27jo-34">
          <mxGeometry width="50" height="50" relative="1" as="geometry">
            <mxPoint x="620" y="820" as="sourcePoint" />
            <mxPoint x="670" y="770" as="targetPoint" />
          </mxGeometry>
        </mxCell>
        <mxCell id="4a3X6e4sG5SJX_5D27jo-45" value="BAT缓存" style="rounded=0;whiteSpace=wrap;html=1;align=center;" vertex="1" parent="1">
          <mxGeometry x="740" y="850" width="100" height="45" as="geometry" />
        </mxCell>
        <mxCell id="4a3X6e4sG5SJX_5D27jo-46" value="" style="endArrow=classic;html=1;entryX=0;entryY=0.5;entryDx=0;entryDy=0;exitX=0.5;exitY=1;exitDx=0;exitDy=0;" edge="1" parent="1" source="4a3X6e4sG5SJX_5D27jo-24" target="4a3X6e4sG5SJX_5D27jo-45">
          <mxGeometry width="50" height="50" relative="1" as="geometry">
            <mxPoint x="560" y="870" as="sourcePoint" />
            <mxPoint x="610" y="820" as="targetPoint" />
          </mxGeometry>
        </mxCell>
        <mxCell id="4a3X6e4sG5SJX_5D27jo-47" value="。。。" style="rounded=0;whiteSpace=wrap;html=1;align=center;" vertex="1" parent="1">
          <mxGeometry x="740" y="920" width="100" height="45" as="geometry" />
        </mxCell>
        <mxCell id="4a3X6e4sG5SJX_5D27jo-48" value="" style="endArrow=classic;html=1;entryX=0;entryY=0.5;entryDx=0;entryDy=0;exitX=0.45;exitY=1.038;exitDx=0;exitDy=0;exitPerimeter=0;" edge="1" parent="1" source="4a3X6e4sG5SJX_5D27jo-24" target="4a3X6e4sG5SJX_5D27jo-47">
          <mxGeometry width="50" height="50" relative="1" as="geometry">
            <mxPoint x="580" y="940" as="sourcePoint" />
            <mxPoint x="630" y="890" as="targetPoint" />
          </mxGeometry>
        </mxCell>
        <mxCell id="4a3X6e4sG5SJX_5D27jo-49" value="。。。" style="rounded=0;whiteSpace=wrap;html=1;align=center;" vertex="1" parent="1">
          <mxGeometry x="240" y="860" width="100" height="45" as="geometry" />
        </mxCell>
        <mxCell id="4a3X6e4sG5SJX_5D27jo-50" value="" style="endArrow=classic;html=1;exitX=1;exitY=0.5;exitDx=0;exitDy=0;" edge="1" parent="1" source="4a3X6e4sG5SJX_5D27jo-49" target="4a3X6e4sG5SJX_5D27jo-24">
          <mxGeometry width="50" height="50" relative="1" as="geometry">
            <mxPoint x="430" y="790" as="sourcePoint" />
            <mxPoint x="480" y="740" as="targetPoint" />
          </mxGeometry>
        </mxCell>
      </root>
    </mxGraphModel>
  </diagram>
</mxfile>
